<?xml version="1.0" encoding="UTF-8" standalone="no"?><!DOCTYPE svg PUBLIC "-//W3C//DTD SVG 1.1//EN" "http://www.w3.org/Graphics/SVG/1.1/DTD/svg11.dtd"><svg width="100%" height="100%" viewBox="0 0 1182 1182" version="1.1" xmlns="http://www.w3.org/2000/svg" xmlns:xlink="http://www.w3.org/1999/xlink" xml:space="preserve" xmlns:serif="http://www.serif.com/" style="fill-rule:evenodd;clip-rule:evenodd;stroke-linejoin:round;stroke-miterlimit:2;"><path d="M807.078,634.236c20.783,20.766 50.967,29.051 79.439,21.804c28.471,-7.247 51.022,-28.953 59.349,-57.128c7.041,-23.765 10.718,-48.621 10.707,-73.856c-0.06,-142.757 -116.01,-258.609 -258.768,-258.549c-25.235,0.011 -50.088,3.709 -73.839,10.796c-28.158,8.348 -49.839,30.909 -57.059,59.378c-7.22,28.468 1.087,58.636 21.864,79.395c-0.019,0.019 -0.019,0.019 -0.019,0.019c9.397,9.389 24.176,10.685 35.064,3.073c21.561,-15.073 47.376,-23.321 74.044,-23.332c71.379,-0.03 129.354,57.896 129.384,129.275c0.011,26.667 -8.214,52.489 -23.269,74.064c-7.603,10.894 -6.295,25.671 3.102,35.061c0,-0 0.001,0 0.001,0Z" style="fill:#01fadc;"/><path d="M634.236,807.078c20.766,20.783 29.051,50.967 21.804,79.439c-7.247,28.471 -28.953,51.022 -57.128,59.349c-23.765,7.041 -48.621,10.718 -73.856,10.707c-142.757,-0.06 -258.609,-116.01 -258.549,-258.768c0.011,-25.235 3.709,-50.088 10.796,-73.839c8.348,-28.158 30.909,-49.839 59.378,-57.059c28.468,-7.22 58.636,1.087 79.395,21.864c0.019,-0.019 0.019,-0.019 0.019,-0.019c9.389,9.397 10.685,24.176 3.073,35.064c-15.073,21.561 -23.321,47.376 -23.332,74.044c-0.03,71.379 57.896,129.354 129.275,129.384c26.667,0.011 52.489,-8.214 74.064,-23.269c10.894,-7.603 25.671,-6.295 35.061,3.102c-0,0 0,0.001 0,0.001Z" style="fill:#01fadc;"/><path d="M738.366,484.714c-32.853,-32.852 -86.198,-32.852 -119.05,0l-134.602,134.602c-32.852,32.852 -32.852,86.197 0,119.05c32.853,32.853 86.198,32.853 119.05,-0l134.602,-134.602c32.853,-32.852 32.853,-86.197 -0,-119.05Z" style="fill:#01fadc;"/><path d="M786.089,613.247c20.783,20.766 50.967,29.051 79.439,21.804c28.472,-7.247 51.022,-28.953 59.349,-57.128c7.041,-23.765 10.718,-48.621 10.707,-73.856c-0.06,-142.757 -116.01,-258.609 -258.767,-258.549c-25.235,0.011 -50.089,3.709 -73.84,10.796c-28.158,8.348 -49.839,30.909 -57.059,59.378c-7.22,28.469 1.087,58.636 21.864,79.395c-0.019,0.019 -0.019,0.019 -0.019,0.019c9.398,9.39 24.177,10.685 35.064,3.073c21.562,-15.073 47.377,-23.32 74.044,-23.332c71.379,-0.03 129.354,57.896 129.384,129.275c0.011,26.667 -8.214,52.489 -23.269,74.064c-7.602,10.894 -6.295,25.671 3.102,35.061c0.001,-0 0.001,0 0.001,0Z" style="fill:#8c8c8c;"/><path d="M613.247,786.089c20.766,20.783 29.051,50.967 21.804,79.439c-7.247,28.472 -28.953,51.022 -57.128,59.349c-23.765,7.041 -48.621,10.718 -73.856,10.707c-142.757,-0.06 -258.609,-116.01 -258.549,-258.767c0.011,-25.235 3.709,-50.089 10.796,-73.84c8.348,-28.158 30.909,-49.839 59.378,-57.059c28.469,-7.22 58.636,1.087 79.395,21.864c0.019,-0.019 0.019,-0.019 0.019,-0.019c9.39,9.398 10.685,24.177 3.073,35.064c-15.073,21.562 -23.32,47.377 -23.332,74.044c-0.03,71.379 57.896,129.354 129.275,129.384c26.667,0.011 52.489,-8.214 74.064,-23.269c10.894,-7.602 25.671,-6.295 35.061,3.102c-0,0.001 0,0.001 0,0.001Z" style="fill:#8c8c8c;"/><path d="M717.377,463.725c-32.853,-32.852 -86.197,-32.852 -119.05,0l-134.602,134.602c-32.852,32.853 -32.852,86.197 0,119.05c32.853,32.853 86.198,32.853 119.051,-0l134.601,-134.601c32.853,-32.853 32.853,-86.198 -0,-119.051Z" style="fill:#8c8c8c;"/></svg>